<svg width="108" height="22" viewBox="0 0 108 22" fill="none" xmlns="http://www.w3.org/2000/svg">
<g clip-path="url(#clip0_3096_510)">
<path d="M4.23726 0L-0.000366211 3.67332V9.38294L4.23726 6.74773V0Z" fill="#FAC515"/>
<path d="M8.51465 20.4425L12.7523 17.8073V11.0596L8.51465 13.6948V20.4425Z" fill="#FAC515"/>
<path d="M8.51449 0V6.38839L-0.000366211 11.6588V16.7695L4.23726 20.4428V14.0544L12.7521 8.7441V3.67332L8.51449 0Z" fill="#FAC515"/>
<path d="M27.6038 3.11401V4.59133H21.6632V9.22291H26.4553V10.7002H21.6632V16.889H19.881V3.11401H27.6038Z" fill="#F7F7F7"/>
<path d="M31.5246 2.27612V16.8496H29.7424V2.27612H31.5246Z" fill="#F7F7F7"/>
<path d="M36.5144 16.3704C35.6828 15.8913 35.0491 15.2524 34.6134 14.414C34.1382 13.5755 33.9006 12.5773 33.9006 11.4593C33.9006 10.3414 34.1382 9.38311 34.6134 8.54463C35.0887 7.70616 35.7224 7.02739 36.554 6.58819C37.3857 6.14899 38.2966 5.90942 39.3263 5.90942C40.356 5.90942 41.2669 6.14899 42.0986 6.58819C42.9303 7.02739 43.5639 7.70616 44.0392 8.54463C44.5144 9.38311 44.7521 10.3813 44.7521 11.4993C44.7521 12.6172 44.5144 13.6154 43.9996 14.4539C43.5243 15.2924 42.8511 15.9711 42.0194 16.4103C41.1877 16.8895 40.2768 17.0891 39.2471 17.0891C38.2174 17.0891 37.3461 16.8495 36.5144 16.4103V16.3704ZM41.0293 15.0129C41.5837 14.6935 42.059 14.2543 42.3758 13.6553C42.7323 13.0564 42.8907 12.2978 42.8907 11.4593C42.8907 10.6209 42.7323 9.86224 42.3758 9.26333C42.0194 8.66442 41.5837 8.22521 41.0293 7.90579C40.4748 7.58637 39.8808 7.46659 39.2471 7.46659C38.6134 7.46659 37.9798 7.6263 37.4649 7.90579C36.9105 8.18529 36.4748 8.66442 36.158 9.26333C35.8412 9.86224 35.6828 10.6209 35.6828 11.4593C35.6828 12.2978 35.8412 13.0964 36.158 13.6953C36.4748 14.2942 36.9105 14.7334 37.4253 15.0528C37.9798 15.3323 38.5342 15.492 39.1679 15.492C39.8016 15.492 40.3956 15.3323 40.9501 15.0528L41.0293 15.0129Z" fill="#F7F7F7"/>
<path d="M50.4154 6.50773C51.1283 6.10846 51.9204 5.8689 52.8312 5.8689C53.7421 5.8689 54.653 6.10846 55.4055 6.54766C56.1976 7.02679 56.7916 7.66563 57.2273 8.50411C57.6629 9.34258 57.9006 10.3008 57.9006 11.4188C57.9006 12.5368 57.6629 13.495 57.2273 14.3335C56.7916 15.172 56.158 15.8507 55.4055 16.3299C54.6134 16.809 53.7817 17.0486 52.8312 17.0486C51.8808 17.0486 51.1283 16.8489 50.4154 16.4097C49.7025 16.0105 49.1877 15.4914 48.8313 14.8526V21.9596H47.0491V6.06853H48.8313V8.0649C49.1877 7.46599 49.7025 6.94694 50.4154 6.50773ZM55.6431 9.30265C55.3263 8.70374 54.8907 8.22461 54.3362 7.90519C53.7817 7.58577 53.1877 7.42607 52.5144 7.42607C51.8412 7.42607 51.2471 7.58577 50.6926 7.90519C50.1382 8.22461 49.7025 8.70374 49.3461 9.30265C49.0293 9.90156 48.8313 10.6203 48.8313 11.4188C48.8313 12.2174 48.9897 12.936 49.3461 13.5749C49.6629 14.1738 50.1382 14.6529 50.6926 14.9723C51.2471 15.2918 51.8412 15.4515 52.5144 15.4515C53.1877 15.4515 53.7817 15.2918 54.3362 14.9723C54.8907 14.6529 55.3263 14.1738 55.6431 13.5749C55.96 12.976 56.1184 12.2573 56.1184 11.4188C56.1184 10.5803 55.96 9.90156 55.6431 9.30265Z" fill="#F7F7F7"/>
<path d="M74.4952 3.03418V16.889H71.1684V11.1794H65.9803V16.889H62.6536V3.03418H65.9803V8.46431H71.1684V3.03418H74.4952Z" fill="#FAC515"/>
<path d="M87.129 12.1778H79.5647C79.6043 12.8566 79.8419 13.3756 80.2379 13.735C80.634 14.0943 81.1092 14.294 81.6637 14.294C82.4953 14.294 83.0894 13.9346 83.4062 13.2159H86.9706C86.7726 13.9346 86.4557 14.5735 85.9805 15.1724C85.5052 15.7314 84.9112 16.2105 84.1983 16.5299C83.4854 16.8493 82.6934 17.009 81.7825 17.009C80.8716 17.009 79.7627 16.7695 78.931 16.3303C78.0993 15.8511 77.426 15.2123 76.9904 14.3738C76.5151 13.5354 76.2775 12.5372 76.2775 11.3793C76.2775 10.2214 76.5151 9.2232 76.9904 8.38472C77.4656 7.54625 78.0993 6.86748 78.931 6.42828C79.7627 5.94915 80.7132 5.74951 81.8221 5.74951C82.931 5.74951 83.8023 5.98908 84.634 6.42828C85.4656 6.86748 86.0993 7.50632 86.5746 8.34479C87.0498 9.18327 87.2874 10.1415 87.2874 11.2595C87.2874 12.3775 87.2874 11.8983 87.2478 12.2577L87.129 12.1778ZM83.8023 10.3012C83.8023 9.74225 83.6043 9.26312 83.2082 8.90378C82.8122 8.54443 82.3369 8.38472 81.7429 8.38472C81.1488 8.38472 80.7132 8.54443 80.3171 8.86385C79.9211 9.18327 79.6835 9.6624 79.6043 10.2613H83.8023V10.3012Z" fill="#FAC515"/>
<path d="M99.4052 16.3307C98.5339 15.8515 97.8606 15.2127 97.3853 14.3742C96.9101 13.5357 96.6329 12.5375 96.6329 11.3797C96.6329 10.2218 96.8705 9.2635 97.3853 8.3851C97.9002 7.50669 98.5735 6.86786 99.4052 6.38873C100.276 5.9096 101.227 5.70996 102.296 5.70996C103.366 5.70996 104.316 5.94953 105.187 6.38873C106.059 6.86786 106.732 7.50669 107.207 8.3851C107.722 9.2635 107.96 10.2617 107.96 11.3797C107.96 12.4976 107.722 13.4958 107.207 14.3742C106.692 15.2526 106.019 15.8914 105.148 16.3706C104.276 16.8497 103.326 17.0493 102.257 17.0493C101.187 17.0493 100.237 16.8098 99.3655 16.3706L99.4052 16.3307ZM103.92 13.4159C104.356 12.9368 104.593 12.2581 104.593 11.3797C104.593 10.5012 104.356 9.82248 103.92 9.34335C103.484 8.86423 102.93 8.62466 102.296 8.62466C101.663 8.62466 101.108 8.86423 100.672 9.34335C100.237 9.82248 100.039 10.5012 100.039 11.3797C100.039 12.2581 100.237 12.9368 100.672 13.4159C101.108 13.8951 101.623 14.1346 102.257 14.1346C102.89 14.1346 103.445 13.8951 103.88 13.4159H103.92Z" fill="#FAC515"/>
<path d="M88.9506 11.6587V16.8892H91.604L88.9506 11.6587Z" fill="#FAC515"/>
<path d="M93.7826 6.26857C93.1885 6.62791 92.7133 7.10704 92.3172 7.70595V5.86929H88.9905V10.2214L92.3172 16.8493V11.7785C92.3172 10.8602 92.5152 10.2214 92.9509 9.86203C93.3865 9.50269 93.9806 9.30305 94.8123 9.30305H95.7232V5.74951C95.0103 5.74951 94.337 5.90922 93.7826 6.26857Z" fill="#FAC515"/>
</g>
<defs>
<clipPath id="clip0_3096_510">
<rect width="108" height="22" fill="white"/>
</clipPath>
</defs>
</svg>
