<svg width="100" height="20" viewBox="0 0 100 20" fill="none" xmlns="http://www.w3.org/2000/svg">
<path fill-rule="evenodd" clip-rule="evenodd" d="M24.3098 0.511475C21.8063 0.511475 20.9143 2.25597 20.9143 3.88847V4.88747H20.3883C20.0033 4.88747 19.7018 5.18897 19.7018 5.57447C19.7018 5.95947 20.0033 6.26097 20.3883 6.26097H20.9143V13.152C20.9143 13.558 21.2323 13.8765 21.6388 13.8765C22.0448 13.8765 22.3633 13.558 22.3633 13.152V6.26097H23.9688C24.3538 6.26097 24.6558 5.95947 24.6558 5.57447C24.6558 5.18897 24.3538 4.88747 23.9688 4.88747H22.3633V3.88847C22.3633 2.97447 22.7008 1.88497 24.3098 1.88497C24.6948 1.88497 24.9963 1.58347 24.9963 1.19797C24.9963 0.812975 24.6948 0.511475 24.3098 0.511475" fill="white"/>
<path fill-rule="evenodd" clip-rule="evenodd" d="M29.9737 4.6604C28.8942 4.6604 27.9712 5.1029 27.4587 5.8399V5.4609C27.4587 5.0544 27.1407 4.7359 26.7342 4.7359C26.3282 4.7359 26.0097 5.0544 26.0097 5.4609V13.1519C26.0097 13.5584 26.3282 13.8769 26.7342 13.8769C27.1407 13.8769 27.4587 13.5584 27.4587 13.1519V8.9084C27.4587 7.1324 28.3992 6.0719 29.9737 6.0719C30.3627 6.0719 30.6792 5.7549 30.6792 5.3659C30.6792 4.9769 30.3627 4.6604 29.9737 4.6604" fill="white"/>
<path fill-rule="evenodd" clip-rule="evenodd" d="M38.1693 6.03731C38.7953 6.94531 38.8628 8.01631 38.8628 8.43481C38.8628 8.96481 38.8628 9.76581 37.9868 9.76581H32.5753C32.6198 11.5278 33.6613 12.6168 35.3158 12.6168C36.3748 12.6168 36.9843 12.2258 37.5178 11.8258C37.6368 11.7463 37.7388 11.6883 37.9298 11.6883C38.2983 11.6883 38.5978 11.9878 38.5978 12.3563C38.5978 12.6113 38.4778 12.7528 38.3548 12.8758C38.1718 13.0583 37.1658 13.9713 35.3158 13.9713C32.5613 13.9713 31.1053 12.3513 31.1053 9.28731C31.1053 6.32281 32.5708 4.62231 35.1263 4.62231C36.4983 4.62231 37.5223 5.09831 38.1693 6.03731ZM37.4313 8.46781C37.3968 6.80231 36.6218 5.95781 35.1263 5.95781C33.6328 5.95781 32.7338 6.84781 32.5833 8.46781H37.4313Z" fill="white"/>
<path fill-rule="evenodd" clip-rule="evenodd" d="M43.7628 8.5541C42.6783 8.1806 41.7423 7.8581 41.7423 7.0521C41.7423 6.1661 42.7243 6.0336 43.3098 6.0336C44.3563 6.0336 44.8813 6.4001 45.2908 6.7946C45.4273 6.9311 45.5893 7.0001 45.7723 7.0001C46.1408 7.0001 46.4403 6.7006 46.4403 6.3321C46.4403 6.1346 46.3568 5.9981 46.2838 5.9011C45.6693 5.0886 44.6133 4.6416 43.3098 4.6416C41.4488 4.6416 40.2928 5.5651 40.2928 7.0521C40.2928 8.8701 41.8878 9.4096 43.2953 9.8856C44.3578 10.2451 45.2753 10.5556 45.2753 11.3336C45.2753 12.4006 44.0913 12.5601 43.3853 12.5601C42.4243 12.5601 41.6648 12.2676 41.0633 11.6666C40.8778 11.4811 40.6888 11.4421 40.5628 11.4421C40.1948 11.4421 39.8953 11.7421 39.8953 12.1101C39.8953 12.2651 39.9368 12.3811 40.0528 12.5436C40.6058 13.2446 41.8503 13.9526 43.3853 13.9526C45.4763 13.9526 46.7243 12.9731 46.7243 11.3336C46.7243 9.5746 45.1508 9.0326 43.7628 8.5541" fill="white"/>
<mask id="mask0_3096_345" style="mask-type:luminance" maskUnits="userSpaceOnUse" x="48" y="0" width="8" height="14">
<path fill-rule="evenodd" clip-rule="evenodd" d="M48.5331 0H55.9876V13.8764H48.5331V0V0Z" fill="white"/>
</mask>
<g mask="url(#mask0_3096_345)">
<path fill-rule="evenodd" clip-rule="evenodd" d="M52.3836 4.62226C51.3836 4.62226 50.4866 5.01976 49.9826 5.66126V0.724256C49.9826 0.318256 49.6641 -0.000244141 49.2581 -0.000244141C48.8516 -0.000244141 48.5331 0.318256 48.5331 0.724256V13.1518C48.5331 13.5583 48.8516 13.8763 49.2581 13.8763C49.6641 13.8763 49.9826 13.5583 49.9826 13.1518V8.47276C49.9826 6.79126 50.7901 5.93876 52.3836 5.93876C53.9141 5.93876 54.5386 6.63426 54.5386 8.34026V13.1518C54.5386 13.5583 54.8566 13.8763 55.2631 13.8763C55.6696 13.8763 55.9876 13.5583 55.9876 13.1518V8.09376C55.9876 5.79026 54.7751 4.62226 52.3836 4.62226" fill="white"/>
</g>
<path fill-rule="evenodd" clip-rule="evenodd" d="M68.1067 4.73608C67.7957 4.73608 67.5422 4.91308 67.4267 5.21308L65.3522 11.1326L63.6547 5.21808C63.5827 4.97808 63.3437 4.73608 62.9727 4.73608C62.6017 4.73608 62.3632 4.97808 62.2907 5.21958L60.5937 11.1326L58.5177 5.20958C58.4037 4.91308 58.1497 4.73608 57.8392 4.73608C57.4327 4.73608 57.1147 5.05458 57.1147 5.46058C57.1147 5.55508 57.1377 5.66458 57.1787 5.76658L59.9637 13.4031C60.0782 13.6996 60.3317 13.8766 60.6427 13.8766C60.9677 13.8766 61.2562 13.6621 61.3437 13.3556L62.9727 7.74208L64.6017 13.3551C64.6897 13.6621 64.9782 13.8766 65.3032 13.8766C65.6142 13.8766 65.8677 13.6996 65.9827 13.4011L68.7662 5.77008C68.8082 5.66458 68.8312 5.55508 68.8312 5.46058C68.8312 5.05458 68.5132 4.73608 68.1067 4.73608" fill="white"/>
<path fill-rule="evenodd" clip-rule="evenodd" d="M69.2953 9.28731C69.2953 6.27931 70.7503 4.62231 73.3918 4.62231C76.0338 4.62231 77.4883 6.27931 77.4883 9.28731C77.4883 12.3078 76.0338 13.9713 73.3918 13.9713C70.7503 13.9713 69.2953 12.3078 69.2953 9.28731ZM70.7633 9.28731C70.7633 11.5403 71.6228 12.6358 73.3918 12.6358C75.1608 12.6358 76.0203 11.5403 76.0203 9.28731C76.0203 7.07831 75.1358 5.95781 73.3918 5.95781C71.6478 5.95781 70.7633 7.07831 70.7633 9.28731Z" fill="white"/>
<path fill-rule="evenodd" clip-rule="evenodd" d="M83.1096 4.6604C82.0301 4.6604 81.1071 5.1029 80.5946 5.8404V5.4609C80.5946 5.0544 80.2766 4.7359 79.8701 4.7359C79.4641 4.7359 79.1456 5.0544 79.1456 5.4609V13.1519C79.1456 13.5584 79.4641 13.8769 79.8701 13.8769C80.2766 13.8769 80.5946 13.5584 80.5946 13.1519V8.9084C80.5946 7.1324 81.5351 6.0719 83.1096 6.0719C83.4986 6.0719 83.8156 5.7549 83.8156 5.3659C83.8156 4.9769 83.4986 4.6604 83.1096 4.6604" fill="white"/>
<mask id="mask1_3096_345" style="mask-type:luminance" maskUnits="userSpaceOnUse" x="84" y="0" width="9" height="14">
<path fill-rule="evenodd" clip-rule="evenodd" d="M92.0938 0L84.9993 0V13.8764H92.0938V0V0Z" fill="white"/>
</mask>
<g mask="url(#mask1_3096_345)">
<path fill-rule="evenodd" clip-rule="evenodd" d="M88.6358 8.4545L91.6518 6.0455C91.9043 5.8435 91.9423 5.5925 91.9423 5.4605C91.9423 5.0545 91.6238 4.736 91.2173 4.736C91.0938 4.736 90.9078 4.755 90.7258 4.9145L86.4483 8.4125V0.7245C86.4483 0.3185 86.1303 0 85.7238 0C85.3173 0 84.9993 0.3185 84.9993 0.7245V13.152C84.9993 13.5585 85.3173 13.8765 85.7238 13.8765C86.1303 13.8765 86.4483 13.5585 86.4483 13.152V10.159L87.4658 9.3415L90.7453 13.547L90.7463 13.548C90.9228 13.769 91.1268 13.8765 91.3688 13.8765C91.7753 13.8765 92.0938 13.5585 92.0938 13.152C92.0938 13.037 92.0768 12.8645 91.9358 12.7005L88.6358 8.4545Z" fill="white"/>
</g>
<path fill-rule="evenodd" clip-rule="evenodd" d="M96.842 8.5541C95.7575 8.1806 94.8215 7.8581 94.8215 7.0521C94.8215 6.1661 95.8035 6.0336 96.389 6.0336C97.4355 6.0336 97.96 6.4001 98.37 6.7946C98.506 6.9311 98.668 7.0001 98.8515 7.0001C99.2195 7.0001 99.519 6.7006 99.519 6.3321C99.519 6.1101 99.41 5.9636 99.363 5.9011C98.7485 5.0886 97.6925 4.6416 96.389 4.6416C94.528 4.6416 93.372 5.5651 93.372 7.0521C93.372 8.8701 94.967 9.4096 96.374 9.8856C97.4365 10.2451 98.354 10.5556 98.354 11.3336C98.354 12.4006 97.17 12.5601 96.4645 12.5601C95.5035 12.5601 94.7435 12.2676 94.1425 11.6666C93.957 11.4811 93.768 11.4421 93.642 11.4421C93.2735 11.4421 92.974 11.7421 92.974 12.1101C92.974 12.2651 93.016 12.3811 93.1325 12.5436C93.685 13.2446 94.9295 13.9526 96.4645 13.9526C98.555 13.9526 99.8035 12.9731 99.8035 11.3336C99.8035 9.5746 98.23 9.0326 96.842 8.5541" fill="white"/>
<path fill-rule="evenodd" clip-rule="evenodd" d="M0.0938721 12.7399C0.368872 14.5879 1.23637 16.2419 2.49737 17.5029L5.40537 14.5944C5.40837 11.6519 6.93487 8.79039 9.66637 7.21289L0.0938721 12.7399Z" fill="#9B65C3"/>
<path fill-rule="evenodd" clip-rule="evenodd" d="M5.40537 14.5945C3.95637 14.596 2.48737 14.23 1.14187 13.4535V13.4535C0.769872 13.2385 0.420372 12.9995 0.0938721 12.74C0.368872 14.5875 1.23637 16.2415 2.49737 17.5025L5.40537 14.5945Z" fill="#9B65C3"/>
<path fill-rule="evenodd" clip-rule="evenodd" d="M5.40544 14.5945V14.5945L2.49744 17.5025C3.75844 18.7635 5.41244 19.631 7.25994 19.906L12.7869 10.333C11.2094 13.065 8.34844 14.5915 5.40544 14.5945" fill="#BE63C5"/>
<path fill-rule="evenodd" clip-rule="evenodd" d="M6.54644 18.858C5.76994 17.5125 5.40394 16.044 5.40544 14.5945L2.49744 17.503C3.75794 18.7635 5.41244 19.6315 7.25994 19.906C7.00044 19.5795 6.76144 19.23 6.54644 18.858Z" fill="#BF63C6"/>
<mask id="mask2_3096_345" style="mask-type:luminance" maskUnits="userSpaceOnUse" x="0" y="3" width="17" height="12">
<path fill-rule="evenodd" clip-rule="evenodd" d="M0 14.5945V3.41553H16.4238V14.5945H0Z" fill="white"/>
</mask>
<g mask="url(#mask2_3096_345)">
<path fill-rule="evenodd" clip-rule="evenodd" d="M16.2443 3.41553L9.66682 7.21303C6.93482 8.79053 3.69382 8.68153 1.14332 7.21253C0.417817 8.46703 -0.000183105 9.92203 -0.000183105 11.4755V11.4755C-0.000183105 11.905 0.0328169 12.327 0.0938169 12.74C0.420817 12.9995 0.769817 13.2385 1.14182 13.4535H1.14232C2.48732 14.23 3.95632 14.596 5.40532 14.5945L16.4238 3.57603C16.3673 3.51903 16.3073 3.46553 16.2443 3.41553" fill="#3278B1"/>
</g>
<path fill-rule="evenodd" clip-rule="evenodd" d="M1.14212 13.4536C2.48762 14.2301 3.95612 14.5961 5.40562 14.5946C5.40862 11.6516 6.93462 8.79063 9.66662 7.21313L0.0941162 12.7401C0.420616 12.9996 0.770116 13.2386 1.14212 13.4536Z" fill="#3278B2"/>
<path fill-rule="evenodd" clip-rule="evenodd" d="M1.1435 7.21265C0.4175 8.46665 0 9.92215 0 11.4751V11.4751C0 11.9051 0.0325 12.3271 0.094 12.7396L9.6665 7.21315C6.9345 8.79015 3.6935 8.68115 1.1435 7.21265" fill="#45A4EC"/>
<path fill-rule="evenodd" clip-rule="evenodd" d="M16.424 3.57593C16.367 3.51893 16.307 3.46543 16.2445 3.41543C16.1615 3.34943 16.073 3.29043 15.981 3.23693C15.668 3.05593 15.3055 2.95093 14.918 2.95093H8.52449C5.36999 2.95093 2.61749 4.66543 1.14349 7.21243C3.69349 8.68143 6.93449 8.79043 9.66649 7.21293C6.93449 8.79043 5.40849 11.6514 5.40549 14.5944C8.34849 14.5914 11.2095 13.0654 12.787 10.3334L16.5845 3.75543C16.5345 3.69243 16.481 3.63293 16.424 3.57593" fill="#19BB7D"/>
<path fill-rule="evenodd" clip-rule="evenodd" d="M9.66668 7.21306L16.2442 3.41556C16.1617 3.34956 16.0732 3.29056 15.9812 3.23706L1.14368 7.21256C3.69368 8.68156 6.93468 8.79056 9.66668 7.21306" fill="#07C7FB"/>
<path fill-rule="evenodd" clip-rule="evenodd" d="M14.9181 2.95068H8.52455C5.37005 2.95068 2.61755 4.66568 1.14355 7.21268L15.9811 3.23668C15.6681 3.05568 15.3056 2.95068 14.9181 2.95068" fill="#59F2F7"/>
<path fill-rule="evenodd" clip-rule="evenodd" d="M12.7869 10.3334L16.5844 3.75593C16.5344 3.69293 16.4809 3.63293 16.4239 3.57593L5.4054 14.5949C5.4039 16.0439 5.7699 17.5129 6.5464 18.8579V18.8579C6.7614 19.2304 7.0004 19.5794 7.2599 19.9059C7.6729 19.9674 8.0949 19.9999 8.5244 19.9999C10.0779 19.9999 11.5329 19.5824 12.7874 18.8564C11.3184 16.3064 11.2094 13.0654 12.7869 10.3334" fill="#DA3757"/>
<path fill-rule="evenodd" clip-rule="evenodd" d="M5.4054 14.5945V14.5945C5.4039 16.0435 5.7699 17.5125 6.5464 18.858V18.858C6.7614 19.23 7.0004 19.5795 7.2599 19.906L12.7869 10.333C11.2094 13.065 8.3484 14.5915 5.4054 14.5945" fill="#D33C4E"/>
<path fill-rule="evenodd" clip-rule="evenodd" d="M12.7869 10.3333L7.25989 19.9058C7.67289 19.9673 8.09489 19.9998 8.52439 19.9998V19.9998C10.0779 19.9998 11.5329 19.5823 12.7874 18.8563C11.3184 16.3063 11.2094 13.0653 12.7869 10.3333" fill="#EE5A24"/>
<path fill-rule="evenodd" clip-rule="evenodd" d="M16.763 4.01903C16.7095 3.92703 16.6505 3.83853 16.5845 3.75553C16.5345 3.69253 16.481 3.63303 16.424 3.57603C16.367 3.51903 16.3075 3.46553 16.2445 3.41553L9.66652 7.21303C6.93452 8.79053 5.40852 11.6515 5.40552 14.5945C8.34852 14.5915 11.2095 13.0655 12.787 10.3335C11.2095 13.0655 11.3185 16.3065 12.7875 18.8565C15.3345 17.3825 17.049 14.63 17.049 11.4755V5.08203C17.049 4.69453 16.944 4.33203 16.763 4.01903" fill="#8BDF55"/>
<path fill-rule="evenodd" clip-rule="evenodd" d="M16.2443 3.41553L9.66677 7.21303C6.93477 8.79053 5.40877 11.6515 5.40527 14.5945V14.5945L16.4238 3.57603C16.3673 3.51903 16.3073 3.46553 16.2443 3.41553" fill="#25C16F"/>
<path fill-rule="evenodd" clip-rule="evenodd" d="M5.4054 14.5947C8.3484 14.5917 11.2094 13.0652 12.7869 10.3332L16.5844 3.75567C16.5344 3.69267 16.4809 3.63267 16.4239 3.57617L5.4054 14.5947Z" fill="#8BDF55"/>
<path fill-rule="evenodd" clip-rule="evenodd" d="M16.5845 3.75562L12.787 10.3331C11.2095 13.0651 11.3185 16.3061 12.7875 18.8566L16.763 4.01912C16.7095 3.92662 16.6505 3.83862 16.5845 3.75562" fill="#FFBB00"/>
<path fill-rule="evenodd" clip-rule="evenodd" d="M12.7873 18.8565C15.3343 17.3825 17.0493 14.63 17.0493 11.4755V5.08204C17.0493 4.69454 16.9443 4.33204 16.7628 4.01904L12.7873 18.8565Z" fill="#FFA800"/>
</svg>
