<svg width="50" height="18" viewBox="0 0 50 18" fill="none" xmlns="http://www.w3.org/2000/svg">
<path fill-rule="evenodd" clip-rule="evenodd" d="M39.3376 0.87956C39.2846 1.48113 38.9697 2.21726 38.8475 2.54179C38.3976 3.73491 37.9922 4.69742 37.7265 4.59637C37.4609 4.49479 37.7057 3.45972 37.885 2.17505C37.9527 1.69142 38.2678 -0.336246 39.0277 0.048179C39.3031 0.18749 39.3705 0.5078 39.3376 0.87956Z" fill="#89C263"/>
<path fill-rule="evenodd" clip-rule="evenodd" d="M43.803 1.91938C43.7391 2.05255 43.6641 2.17612 43.5915 2.2827C43.2396 2.79672 42.8426 3.27978 42.4258 3.73846C41.2893 4.98679 40.3149 5.97209 39.9963 5.71288C39.6781 5.45313 40.4657 4.29631 41.2729 2.79782C41.6113 2.16899 42.0191 1.51578 42.5318 1.02314C42.8305 0.735986 43.4314 0.339237 43.7901 0.755987C44.0788 1.09191 43.9848 1.54236 43.803 1.91938Z" fill="#EDA42D"/>
<path fill-rule="evenodd" clip-rule="evenodd" d="M49.1044 8.87533C48.7594 9.04035 48.359 9.14469 48.1175 9.20833C47.7505 9.30502 47.3797 9.38593 47.0059 9.45623C45.414 9.75421 44.0961 9.94809 43.9846 9.58499C43.8847 9.26087 44.5335 9.03172 44.7517 8.93182C45.5817 8.55121 46.4301 8.16221 47.2927 7.85387C47.8587 7.65136 49.3901 7.09044 49.7152 7.92319C49.8876 8.36275 49.54 8.66689 49.1044 8.87533Z" fill="#AE5191"/>
<path fill-rule="evenodd" clip-rule="evenodd" d="M47.5928 4.36476C47.3579 4.61554 47.0587 4.82232 46.7944 5.02273C46.3812 5.33684 45.9529 5.63137 45.5145 5.90987C43.8936 6.93841 42.5321 7.73423 42.2799 7.40588C42.0172 7.06405 43.0721 6.20744 43.2475 6.0294C43.8731 5.39534 44.4963 4.75314 45.1745 4.17299C45.6874 3.73477 47.1249 2.37584 47.8799 3.07222C48.1419 3.31409 47.9942 3.75206 47.8512 4.01479C47.7821 4.14171 47.6935 4.25718 47.5928 4.36476Z" fill="#2D89BE"/>
<path fill-rule="evenodd" clip-rule="evenodd" d="M1.55733 17.4459H1.91534C2.79246 17.4459 3.43688 17.0227 3.43688 15.8061V13.5727L5.52256 16.4761C6.02377 17.2343 6.75769 17.4988 7.3842 17.4988C8.40452 17.4988 9.37115 16.6524 9.28164 16.4761L6.49784 12.6911L8.8786 9.35859C8.9681 9.16464 8.05518 8.31828 7.01695 8.31828C6.42624 8.31828 5.69233 8.58277 5.20901 9.34096L3.43688 11.9682V7.3485C3.43688 5.28551 2.30915 4.77417 1.32463 4.77417C0.626514 4.77417 0 5.03866 0 5.16208V15.8061C0 17.058 0.644414 17.4459 1.55733 17.4459ZM14.8354 17.4342C17.3415 17.4342 18.7198 16.5526 18.7198 15.3889C18.7198 14.1017 17.1446 13.7727 17.1446 13.8079C16.8045 14.4074 16.0706 14.9188 14.9966 14.9188C13.9046 14.9188 13.1528 14.4603 12.938 13.5435H18.5408C19.0599 13.5435 19.221 13.1732 19.2389 12.6618V12.4502C19.2389 9.92881 17.3415 8.09504 14.6206 8.09504C11.8819 8.09504 9.89494 10.0699 9.89494 12.75C9.89494 15.5535 11.8103 17.4342 14.8354 17.4342ZM14.5848 10.2991C15.5336 10.2991 16.1243 10.8986 16.1422 11.7978H12.8843C12.9917 10.9339 13.6898 10.2991 14.5848 10.2991ZM22.4212 17.4459H22.7792C23.6564 17.4459 24.3008 17.0227 24.3008 15.8061V13.5727L26.3865 16.4761C26.8877 17.2343 27.6216 17.4988 28.2481 17.4988C29.2684 17.4988 30.2351 16.6524 30.1455 16.4761L27.3617 12.6911L29.7425 9.35859C29.832 9.16464 28.9191 8.31828 27.8809 8.31828C27.2901 8.31828 26.5562 8.58277 26.0729 9.34096L24.3008 11.9682V7.3485C24.3008 5.28551 23.1731 4.77417 22.1885 4.77417C21.4904 4.77417 20.8639 5.03866 20.8639 5.16208V15.8061C20.8639 17.058 21.5083 17.4459 22.4212 17.4459ZM33.6945 17.534C34.9833 17.534 36.0753 17.0051 36.666 16.1058C36.9345 17.0403 37.6147 17.5164 38.5992 17.5164C39.2615 17.5164 39.9238 17.3048 39.9238 17.1285V12.1562C39.9238 9.65236 38.5276 8.43573 35.3413 8.43573C32.4057 8.43573 31.0811 9.29972 31.0811 10.675C31.0811 12.1738 33.3365 12.0504 33.3544 11.9975C33.5871 11.4685 34.0346 10.8337 35.1444 10.8337C35.9679 10.8337 36.4512 11.2393 36.5228 11.9975H36.1827C32.4057 12.0151 30.7409 12.9673 30.7409 14.9597C30.7409 16.4761 31.9045 17.534 33.6945 17.534ZM35.037 15.4711C34.4105 15.4711 33.9988 15.1713 33.9988 14.66C33.9988 13.9899 34.7327 13.7078 36.1111 13.6726H36.5407V13.9723C36.5407 14.8539 35.95 15.4711 35.037 15.4711Z" fill="white"/>
</svg>
